<?xml version="1.0" encoding="iso-8859-1"?>
<!-- Uploaded to: SVG Repo, www.svgrepo.com, Generator: SVG Repo Mixer Tools -->
<svg fill="#000000" height="800px" width="800px" version="1.1" id="Layer_1" xmlns="http://www.w3.org/2000/svg" xmlns:xlink="http://www.w3.org/1999/xlink" 
	 viewBox="0 0 512 512" xml:space="preserve">
<g>
	<g>
		<path d="M442.052,297.423c-3.597-3.45-9.305-3.333-12.757,0.26l-10.608,11.047c-3.451,3.593-3.336,9.305,0.257,12.757
			c1.75,1.679,4.001,2.514,6.248,2.514c2.371,0,4.737-0.927,6.508-2.773l10.608-11.047
			C445.761,306.587,445.645,300.876,442.052,297.423z"/>
	</g>
</g>
<g>
	<g>
		<path d="M510.53,157.603c-8.92-64.031-59.638-115.792-123.335-125.877c-43.911-6.952-88.174,5.512-121.444,34.196
			c-5.744,4.952-13.766,4.952-19.509,0.001c-33.309-28.717-77.625-41.174-121.577-34.177C61.797,41.753,11.242,92.721,1.726,155.689
			c-6.71,44.403,6.333,88.904,35.781,122.092c4.396,4.956,176.992,175.509,196.642,194.924c6.346,6.303,14.667,9.453,22.989,9.453
			c8.362,0,16.724-3.181,23.082-9.537l95.672-95.878c3.52-3.527,3.514-9.24-0.013-12.759c-3.527-3.519-9.24-3.514-12.759,0.013
			l-95.666,95.871c-5.664,5.666-14.902,5.682-20.605,0.018c-52.868-52.238-191.12-188.943-195.843-194.081
			c-25.887-29.173-37.345-68.326-31.437-107.419c8.354-55.285,52.738-100.032,107.932-108.817
			c38.702-6.157,77.682,4.784,106.957,30.023c12.479,10.76,30.595,10.76,43.076-0.001c29.241-25.21,68.175-36.16,106.84-30.04
			c26.904,4.26,52.507,17.624,72.096,37.633c19.573,19.995,32.424,45.888,36.189,72.91c5.612,40.287-7.201,80.133-35.155,109.321
			c-3.445,3.599-3.323,9.31,0.275,12.757c3.597,3.447,9.309,3.323,12.757-0.276C502.33,248.694,516.908,203.392,510.53,157.603z"/>
	</g>
</g>
</svg>